<svg width="44" height="44" viewBox="0 0 44 44" fill="none" xmlns="http://www.w3.org/2000/svg">
<path d="M17.5562 27.7137L29.9675 11.7559C29.4507 11.0915 29.0693 10.2735 28.8571 9.37428C28.6448 8.47506 28.6083 7.52241 28.7507 6.60071C28.8932 5.67901 29.2101 4.8167 29.6736 4.09016C30.1371 3.36362 30.7327 2.79528 31.4078 2.43547C32.0829 2.07566 32.8165 1.9355 33.5438 2.02739C34.271 2.11928 34.9694 2.44038 35.5771 2.96227C36.1848 3.48416 36.6831 4.19071 37.0277 5.01936C37.3724 5.848 37.5528 6.77316 37.553 7.71288C38.2839 7.71221 39.0037 7.94342 39.6485 8.38601C40.2934 8.82861 40.8434 9.46893 41.2498 10.2502C41.6561 11.0315 41.9064 11.9297 41.9783 12.8651C42.0503 13.8005 41.9416 14.7443 41.6621 15.6128C41.3826 16.4813 40.9408 17.2477 40.3758 17.8442C39.8109 18.4406 39.1402 18.8486 38.4234 19.032C37.7065 19.2155 36.9655 19.1687 36.266 18.8958C35.5666 18.6229 34.9303 18.1323 34.4135 17.4676L26.4436 27.7137" stroke="#979797" stroke-width="4" stroke-linecap="round" stroke-linejoin="round"/>
<path d="M22 21.9992L14.0324 11.7559C14.5492 11.0915 14.9306 10.2735 15.1428 9.37428C15.3551 8.47506 15.3916 7.52241 15.2492 6.60071C15.1067 5.67901 14.7897 4.8167 14.3263 4.09016C13.8628 3.36362 13.2672 2.79528 12.5921 2.43547C11.917 2.07566 11.1834 1.9355 10.4561 2.02739C9.72888 2.11928 9.03047 2.44038 8.42277 2.96227C7.81507 3.48416 7.31683 4.19071 6.97219 5.01936C6.62754 5.848 6.44712 6.77316 6.44691 7.71288C5.71597 7.71221 4.99619 7.94342 4.35135 8.38601C3.70651 8.82861 3.15652 9.46893 2.75013 10.2502C2.34374 11.0315 2.0935 11.9297 2.02157 12.8651C1.94964 13.8005 2.05825 14.7443 2.33778 15.6128C2.61731 16.4813 3.05912 17.2477 3.62407 17.8442C4.18901 18.4406 4.85964 18.8486 5.57652 19.032C6.29341 19.2155 7.03441 19.1687 7.73387 18.8958C8.43333 18.6229 9.06964 18.1323 9.58641 17.4676L17.5563 27.7137" stroke="#979797" stroke-width="4" stroke-linecap="round" stroke-linejoin="round"/>
<path d="M2.00317 41.9999H41.9968C41.608 37.2254 41.8946 32.4424 37.5531 27.7136H6.44691C3.48516 30.5709 2.00317 35.3339 2.00317 41.9999Z" stroke="#979797" stroke-width="4" stroke-linecap="round" stroke-linejoin="round"/>
</svg>
