<svg width="40" height="40" viewBox="0 0 40 40" fill="none" xmlns="http://www.w3.org/2000/svg">
<path d="M34.9231 4.72003H26.5588C25.0474 4.72337 25.1039 6.28338 26.5588 6.27421H34.9231V7.07172H26.5588C25.0558 7.06255 25.1112 8.62173 26.5588 8.62589H34.9231V9.4409H26.5588C25.0558 9.4409 25.1112 10.9992 26.5588 10.9951H34.9231V11.7717H26.5588C25.0871 11.7792 25.1112 13.3393 26.5588 13.3443H34.9231V14.1226H26.5588C25.0871 14.1193 25.0811 15.6768 26.5588 15.6768H34.9231V16.4534H26.5588C25.0871 16.4568 25.0811 18.016 26.5588 18.0085H34.9231V18.8043H26.5588C25.0871 18.7951 25.0811 20.3526 26.5588 20.3585H34.9231V21.1335H26.5588C25.0871 21.1326 25.1112 22.6935 26.5588 22.6885H34.9231V37.8211C34.9279 40.1269 39.9856 40.0853 40 37.8211V2.40835C39.9856 1.35501 38.7365 0.0233335 36.6812 0.0191668H26.5588C25.0474 0.0200001 25.1039 1.58001 26.5588 1.57334L34.9231 1.59251V2.36752H26.5588C25.0498 2.36252 25.1063 3.92169 26.5588 3.92253H34.9231V4.72003V4.72003ZM25.9836 31.5486C25.9788 28.8569 21.95 25.9618 17.1367 27.8369V17.5418L14.0236 0.562504C13.9587 0.113334 13.4087 0.00750005 13.0393 0C12.6579 0.00750005 11.8937 0.113334 11.8107 0.562504L8.71334 17.5418V27.8369C3.9 25.9618 0.00120333 28.8752 0 31.5277C0.00120333 33.8877 2.62447 35.8261 6.1743 35.8202C9.75061 35.8261 12.3233 33.6536 12.3233 31.5277V20.8335H13.5267V31.5277C13.5267 33.9077 16.1884 35.6694 19.1462 35.7811C19.0969 37.0861 19.7118 38.9478 20.8694 39.6861C22.2268 40.5528 23.8428 39.4444 23.1798 38.5419C22.5396 37.7019 21.9115 37.2044 22.4217 35.3702C24.554 34.6869 25.9788 33.2486 25.9836 31.5486V31.5486ZM6.31148 33.6661C5.50006 33.6661 4.72187 33.4428 4.14811 33.0455C3.57434 32.6481 3.25201 32.1092 3.25201 31.5473C3.25201 30.9854 3.57434 30.4465 4.14811 30.0491C4.72187 29.6518 5.50006 29.4285 6.31148 29.4285C7.9793 29.4352 9.33787 30.3827 9.3499 31.5486C9.34647 32.1071 9.02585 32.6423 8.45733 33.0385C7.8888 33.4348 7.11801 33.6602 6.31148 33.6661V33.6661ZM16.6253 31.5486C16.6281 30.9895 16.9485 30.4536 17.5173 30.0569C18.0862 29.6602 18.8576 29.4344 19.6649 29.4285C20.4724 29.4336 21.2445 29.6591 21.8134 30.056C22.3823 30.4529 22.7021 30.9893 22.7033 31.5486C22.702 32.1076 22.3821 32.6437 21.8131 33.0402C21.2441 33.4367 20.4721 33.6617 19.6649 33.6661C18.8578 33.661 18.0862 33.4359 17.5172 33.0395C16.9482 32.6432 16.6278 32.1075 16.6253 31.5486V31.5486Z" fill="#979797"/>
</svg>
