<svg width="40" height="40" viewBox="0 0 40 40" fill="none" xmlns="http://www.w3.org/2000/svg">
<path d="M5.85128 34.1296C9.64308 37.916 14.6655 40 20 40C25.3345 40 30.3589 37.916 34.1487 34.1296C41.9504 26.339 41.9504 13.663 34.1487 5.87042C30.3589 2.08602 25.3325 0 20 0C14.6675 0 9.64108 2.08602 5.85128 5.87042C-1.95043 13.661 -1.95043 26.339 5.85128 34.1296ZM31.3194 31.3043C29.2225 33.404 26.58 34.8773 23.6898 35.5582C23.6717 32.3573 24.8623 29.2722 27.0734 27.0643C29.4005 24.7405 32.54 23.4118 35.6314 23.3658C34.994 26.373 33.4961 29.1308 31.3194 31.3043ZM35.9716 19.3856C31.7216 19.3436 27.3995 21.09 24.244 24.239C21.1786 27.3001 19.5878 31.592 19.7159 35.9898C15.5653 35.9266 11.6041 34.245 8.67862 31.3043C5.74948 28.3778 4.07595 24.4278 4.01241 20.2907C4.16648 20.2947 4.32055 20.3187 4.47463 20.3187C8.70664 20.3187 12.7986 18.7122 15.754 15.763C18.9155 12.606 20.6703 8.29212 20.6163 4.02817C24.648 4.17276 28.4739 5.84196 31.3194 8.69774C34.1684 11.5443 35.8308 15.3635 35.9716 19.3856ZM8.68062 8.69774C10.8553 6.51606 13.6166 5.01068 16.6304 4.36385C16.5944 7.4709 15.2597 10.6059 12.9266 12.9377C10.7176 15.1416 7.64013 16.3265 4.44661 16.3165C5.11711 13.4317 6.58393 10.7922 8.68062 8.69774Z" fill="#979797"/>
</svg>
