<svg width="40" height="40" viewBox="0 0 40 40" fill="none" xmlns="http://www.w3.org/2000/svg">
<path d="M13.3643 15.0978C15.6944 14.7534 17.4224 12.9083 17.6854 10.704C17.9524 8.46235 18.5544 -0.545995 14.6653 0.0270267C4.57719 1.5148 5.2852 16.289 13.3643 15.0978ZM26.6375 15.0978C34.7146 16.289 35.4226 1.5148 25.3345 0.0261573C21.4464 -0.546864 22.0474 8.46148 22.3134 10.7031C22.5775 12.9083 24.3075 14.7534 26.6375 15.0978ZM9.22026 22.0584C9.22026 20.8862 8.73925 19.8237 7.96424 19.0506C6.68922 17.602 2.63617 14.6726 1.64115 15.423C-0.435879 16.9933 -0.368878 20.8584 0.88214 23.667C1.52515 25.2287 3.07817 26.3269 4.8932 26.3269C7.28223 26.3269 9.22026 24.4157 9.22026 22.0584ZM38.3577 15.423C37.3647 14.6726 33.3116 17.602 32.0366 19.0506C31.2616 19.8237 30.7796 20.8862 30.7796 22.0584C30.7796 24.4157 32.7196 26.3269 35.1066 26.3269C36.9227 26.3269 38.4767 25.2287 39.1197 23.667C40.3677 20.8584 40.4367 16.9933 38.3577 15.423ZM30.2216 28.7068C26.5455 27.1129 26.6595 24.0435 25.8235 21.2427C25.1585 19.0089 22.8035 17.3568 20.0004 17.3568C18.7002 17.3538 17.434 17.7176 16.3919 18.3937C15.3499 19.0698 14.5882 20.0216 14.2213 21.1062C13.3263 23.7861 13.8653 26.906 9.85827 28.6859C6.60322 29.6085 5.2852 30.9545 5.2852 34.1379C5.2852 36.7239 7.83824 39.4925 11.1333 39.8368C14.8093 40.3185 17.6774 39.689 20.0004 38.5377C22.3234 39.689 25.1895 40.3176 28.8715 39.8368C32.1646 39.4925 34.7186 36.7343 34.7186 34.1379C34.7176 30.885 33.4836 29.6728 30.2216 28.7068ZM25.8845 32.5971H22.0734L22.0784 36.0752H17.9224L17.9284 32.5971H13.8843V29.1189H17.9294L17.9234 25.6408H22.0794L22.0744 29.1189H25.8845V32.5971Z" fill="#979797"/>
</svg>
